<?xml version="1.0" encoding="UTF-8"?>
<svg width="600px" height="600px" viewBox="0 0 600 600" version="1.1" xmlns="http://www.w3.org/2000/svg" xmlns:xlink="http://www.w3.org/1999/xlink">
    <g stroke="none" stroke-width="1" fill="none" fill-rule="evenodd">
        <g id="logo" transform="translate(0, 0)">
            <path d="M265.931428,549.728 L36.646857,444.274286 C17.117714,435.058286 17.117714,420.832 36.646857,412.457143 L116.482285,375.648 L265.090285,444.274286 C284.619428,453.472 316.034285,453.472 334.722285,444.274286 L483.330285,375.648 L563.165714,412.457143 C582.694858,421.673143 582.694858,435.899429 563.165714,444.274286 L333.862857,549.728 C316.034286,558.084572 284.619429,558.084572 265.931428,549.728 Z" fill="#FF6F3D" fill-rule="nonzero"></path>
            <path d="M265.931428,419.990857 L36.646857,314.537143 C17.117714,305.339428 17.117714,291.113143 36.646857,282.738285 L114.781714,246.752 L265.931428,316.219428 C285.478857,325.417143 316.893714,325.417143 335.563428,316.219428 L486.731428,246.733714 L564.866285,282.738285 C584.395428,291.954285 584.395428,306.180571 564.866285,314.555428 L335.563428,419.990857 C316.034285,429.206857 284.619428,429.206857 265.931428,419.990857 Z" fill="#95C038" fill-rule="nonzero"></path>
            <path d="M265.931428,293.618286 L36.646857,188.164572 C17.117714,178.948572 17.117714,164.722286 36.646857,156.347428 L265.949714,50.9302855 C285.478857,41.7142855 316.893714,41.7142855 335.563428,50.9302855 L564.866285,156.384 C584.395428,165.581715 584.395428,179.808 564.866285,188.182857 L335.563428,293.636572 C316.034285,302.011429 284.619428,302.011429 265.931428,293.636572 L265.931428,293.618286 Z" fill="#5DC0E8" fill-rule="nonzero"></path>
        </g>
    </g>
</svg>
