<?xml version="1.0" encoding="UTF-8"?><svg version="1.1" width="512px" height="512px" viewBox="0 0 512.0 512.0" xmlns="http://www.w3.org/2000/svg" xmlns:xlink="http://www.w3.org/1999/xlink"><defs><clipPath id="i0"><path d="M390.161067,0 C457.4464,0 512,54.5536 512,121.838933 L512,390.1696 C512,457.4464 457.4464,512 390.152534,512 L121.847466,512 C54.5621335,512 0,457.4464 0,390.161067 L0,121.838933 C0,54.5536 54.5621335,0 121.847466,0 Z"></path></clipPath><clipPath id="i1"><path d="M27.134641,0 C47.0560444,0 62.7371493,10.0299979 75.9180778,19.3806732 L78.07823,21.019039 C80.5184017,22.917146 81.7384878,23.7563092 83.2185919,23.7563097 C124.681513,23.7563097 154.703628,47.192938 181.905544,71.1890081 C208.591148,94.5690934 229.335326,123.94702 242.429808,156.903531 C247.810187,170.489982 254.350648,184.016493 260.671094,197.063482 C263.711308,203.377186 266.831527,209.81077 269.791736,216.204395 C271.371848,219.601007 273.632007,221.658955 277.572284,223.277341 C309.714548,236.464191 335.57637,254.426278 356.617853,278.102668 C359.618064,281.479301 362.878294,285.994797 361.318184,291.089717 C359.598063,296.684138 353.477632,298.182644 349.437347,299.161667 C344.016965,300.500332 338.436572,301.339496 333.036192,302.158678 C326.835755,303.077762 320.475307,304.036806 314.314873,305.815032 C316.815049,308.052801 319.775257,309.671187 322.435445,310.969892 C334.636304,317.003874 343.556933,326.39451 352.157539,335.445484 C354.897732,338.342595 356.957877,340.540403 359.038023,342.618331 C366.878575,350.41056 363.39833,356.104882 362.11824,357.643347 C360.490507,359.749485 357.981342,360.987985 355.317761,361 C351.877519,361 349.317338,359.001992 347.49721,357.563427 C340.39671,352.288687 333.376215,348.752214 325.895689,345.01594 C318.175145,341.119825 310.274588,337.183751 302.974074,331.74917 C294.853502,325.715187 285.712858,317.962918 279.452417,306.434415 C278.432345,304.556287 275.332127,298.841986 277.51228,293.347465 C279.432415,288.472327 284.172749,286.47432 287.572988,285.355435 C298.09373,281.958822 310.314591,278.362409 323.415514,277.842927 L322.595456,277.223545 C307.31438,265.774961 293.773425,255.625083 277.172256,251.649048 C254.550662,246.294388 244.649965,230.92971 237.949493,216.603996 C233.607908,207.195638 229.466684,197.696304 225.528617,188.112409 C216.928011,167.692772 208.127392,146.753653 195.686515,128.371984 C175.585099,98.6815915 149.823284,75.6245848 119.081118,59.8802856 C110.600521,55.5246294 99.2197191,50.5296104 86.6188313,50.5296104 L84.5186834,50.5296104 C74.3179647,50.5296104 65.6173518,47.192938 57.8168022,40.299812 C51.3963499,34.6454505 43.0757639,31.4686186 34.2551425,28.0919857 L30.2548608,26.5735003 C28.9092309,25.9789758 27.4644619,25.6401898 25.9945607,25.5744962 C24.094427,26.5335398 23.1343593,27.6124639 26.1345702,32.2078815 C30.434873,38.7813261 35.2552128,45.5945321 40.9156117,53.0271196 C51.0363245,66.3338498 56.3566997,81.5386869 59.8369449,93.3269316 C64.7572915,109.990314 70.1176693,123.257085 80.3583906,133.866505 C89.8390585,143.716682 84.9387134,154.685743 81.7184863,161.95849 L78.9582918,163.237215 L80.7984213,164.016438 C72.0378041,184.496015 72.0978083,206.094477 80.9584329,234.006642 C81.6784836,236.20445 82.8785681,238.522139 83.9586442,240.480186 L84.0986538,240.739927 C85.2987383,227.952679 86.7788424,213.606985 96.8995558,201.53902 C99.3397275,197.662885 102.079921,193.187348 107.620311,193.187348 C115.540869,194.046491 116.98097,200.579976 117.54101,203.077485 C127.701726,230.370268 142.622777,254.066637 155.883711,274.266493 C156.993621,275.988781 157.195084,278.142879 156.423749,280.040735 C155.621099,281.935418 153.93951,283.316583 151.923432,283.737049 C150.797663,283.967042 149.652226,284.087486 148.503191,284.09669 C141.10267,284.09669 136.482344,279.401372 122.94139,264.556177 C118.921107,260.14058 116.020903,255.0057 113.480724,250.490204 L111.520586,247.073611 C111.320571,249.55114 111.060553,251.708989 110.500514,253.846856 C107.420297,265.675061 99.459736,273.027729 89.7590527,273.027729 C83.7386284,273.027729 77.7582073,270.190558 72.4778353,264.835898 C60.5969982,252.827873 54.0565375,237.223434 51.8363811,215.784813 C49.6362262,194.406133 51.9563895,174.186296 58.7568688,155.604826 C60.6169998,150.489927 60.6169998,147.872537 56.9167388,143.37702 C44.5958707,128.292064 38.6754537,109.750554 33.6751018,92.0681869 C30.3348666,80.2399822 24.1144281,70.649546 15.7738405,59.9002658 C9.57340349,51.948196 4.11301881,44.9152094 1.43283015,35.6644344 C-1.32736431,26.2538189 -0.0672755365,17.2827653 4.93307689,10.4695593 C9.85342353,3.77623423 17.7339789,0.0799199889 27.134641,0 Z M84.9787161,60.9592097 C87.3788852,60.9592097 89.9390654,61.6185522 92.3192329,62.8772969 C99.8197613,66.853332 104.100063,72.8473546 104.320078,79.7005201 C104.100063,84.6955391 103.520022,93.6665928 95.5194585,95.9842818 C94.6939444,96.2255827 93.8393443,96.3532998 92.9792794,96.3639029 C87.1188667,96.3639029 85.0587214,90.9692826 84.2586654,88.9512951 C82.5957623,86.1610909 80.922299,83.3771804 79.2383114,80.5996235 L79.938361,77.8024131 L78.2182395,78.861357 C71.3977592,72.0681312 74.1179505,67.1130727 76.2781031,64.7154637 C78.4903529,62.2546912 81.6686559,60.8825449 84.9787161,60.9592097 Z"></path></clipPath></defs><g clip-path="url(#i0)"><polygon points="0,0 512,0 512,512 0,512 0,0" stroke="none" fill="#1A439A"></polygon></g><g transform="translate(73.99999999999997 76.0)"><g transform=""><g clip-path="url(#i1)"><polygon points="-3.65594379e-17,0 364,0 364,361 -3.65594379e-17,361 -3.65594379e-17,0" stroke="none" fill="#FFFFFF"></polygon></g></g></g></svg>