<svg class="icon" viewBox="0 0 1024 1024" version="1.1" xmlns="http://www.w3.org/2000/svg" width="512" height="512"><path d="M38.367666 0h942.827351l10.922625 5.119981c-16.793536 1.365328-33.655339 1.911459-50.517141 1.774926C637.268857 5.939177 332.800681 8.396768 28.469037 5.666112L38.367666 0z" fill="#8F4F02" opacity=".59"></path><path d="M5.599791 27.784428C11.197636 18.568463 19.184806 11.127424 28.469037 5.666112c304.331644 2.730656 608.79982 0.273066 913.131464 1.228795 16.861803 0.136533 33.723605-0.409598 50.517141-1.774926 16.452204 7.509305 29.968953 23.347111 28.330559 42.461705 0.409598 156.398339-0.068266 312.864944 0.204799 469.263283-78.369836-72.157592-149.776498-151.483158-224.323414-227.463669-46.830755-45.738493-89.360727-95.982569-139.741335-137.829876-12.629285-14.131146-28.194026-28.467092-48.605682-27.17003a20049.843811 20049.843811 0 0 0-192.238203 0c-28.398825-0.477865-54.135261 24.848972-54.066995 53.247798-1.297062 49.902744-1.297062 99.94202 0 149.844764-0.273066 25.46337 19.797258 44.373165 41.847308 53.38433-38.297454 63.419492-74.546917 128.136046-112.980904 191.487272-35.839864 0.204799-71.679728-1.228795-107.451325 0.341332-28.330559 1.160529-54.066995 26.350833-53.520863 55.159258-1.570127 47.991284-0.819197 96.119101-0.409599 144.178652-0.95573 24.166308 15.291675 43.553968 34.815868 55.500589 1.774927 3.003722 5.32478 9.011166 7.03144 12.014887 15.01861 23.074046 36.590794 40.618512 55.500589 60.279238 40.004115 41.23291 81.578357 81.032225 119.739278 124.108328h630.235472l10.44476 0.068267H58.43799c-21.572185 0.204799-45.192362-7.645838-53.657396-29.013223 1.023996-13.10715 1.911459-26.146034 2.047992-39.184918C6.828586 659.863093 6.76032 363.928217 6.828586 68.061608 6.828586 54.613126 6.214189 41.164644 5.599791 27.784428z" fill="#F08704"></path><path d="M0.001946 38.638787l5.597845-10.854359C6.214189 41.164644 6.828586 54.613126 6.828586 68.061608 6.76032 363.928217 6.828586 659.863093 6.828586 955.797968c-0.136533 13.038884-1.023996 26.077768-2.047992 39.184918l-4.778648-9.557297V38.638787z" fill="#B76703" opacity=".74"></path><path d="M361.677371 177.629192c-0.068266-28.398825 25.668169-53.725663 54.066995-53.247798a20049.843811 20049.843811 0 0 1 192.238203 0c20.411656-1.297062 35.976397 13.038884 48.605682 27.17003 7.577571 23.893243 4.300784 49.151813 4.846914 73.795986-0.477865 36.317729 0.95573 72.635457-0.546131 108.88492-1.228795 23.75671-22.527914 38.911852-42.666504 47.103821 39.253184 62.736828 75.43438 127.453382 113.185703 191.14594 36.454261 0.341332 72.908523-1.092263 109.294518 0.409599 27.852694 0.614398 54.613126 25.804702 52.769933 54.408326 0.136533 50.380609 0.204799 100.829484-0.068267 151.210092 0.887463 24.029775-19.592459 42.256906-40.004114 50.995007-73.045056 1.570127-146.226644 1.638394-219.2717 0-21.230853-8.601567-39.731049-27.511362-40.550246-51.472872-1.774927-45.397161-0.136533-90.794322-0.887464-136.259748-0.819197-20.548189 3.822919-42.871304 21.299119-55.773655 13.653281-14.882077 35.1572-11.195691 53.247798-12.083154-37.61479-64.580021-75.229581-129.160043-113.527035-193.330466-27.920961 0.204799-55.841921 0.204799-83.831148-0.068266-38.638787 63.965624-75.912245 128.750444-113.731835 193.262199 18.227131 1.228795 40.27718-2.798923 53.862196 12.561019 17.134868 12.834085 21.913517 34.884134 21.094319 55.159257-0.819197 45.806759 1.228795 91.750051-1.023996 137.556811-1.501861 23.551911-20.002057 41.710775-40.755045 50.448875-75.024782 0.409598-150.527428 4.027718-225.34741-1.979726-19.524192-11.946621-35.771597-31.334281-34.815868-55.500589-0.409598-48.059551-1.160529-96.187368 0.409599-144.178652-0.546131-28.808424 25.190304-53.998728 53.520863-55.159258 35.771597-1.570127 71.611461-0.136533 107.451325-0.341332 38.433987-63.351226 74.68345-128.06778 112.980904-191.487272-22.05005-9.011166-42.120373-27.920961-41.847308-53.38433-1.297062-49.902744-1.297062-99.94202 0-149.844764z" fill="#FFFFFF"></path><path d="M656.588251 151.551424c50.380609 41.847308 92.91058 92.091383 139.741335 137.829876 74.546917 75.980511 145.953579 155.306077 224.323414 227.463669 0.204799 153.121551 0.136533 306.243103 0.136533 459.364655 1.911459 25.395103-19.933791 45.465427-44.304898 47.718218H346.249163c-38.160922-43.076103-79.735164-82.875418-119.739278-124.108328-18.909795-19.660725-40.48198-37.205192-55.500589-60.279238 59.118709-1.092263 118.237417-0.409598 177.287859 0 14.472478 0.682664 28.398825-3.208521 41.028111-10.035161 20.752988-8.7381 39.253184-26.896964 40.755045-50.448875 2.252791-45.806759 0.204799-91.750051 1.023996-137.556811 0.819197-20.275123-3.959452-42.325172-21.094319-55.159257-13.585015-15.359942-35.635065-11.332224-53.862196-12.561019 37.81959-64.511755 75.093048-129.296575 113.731835-193.262199 27.989227 0.273066 55.910188 0.273066 83.831148 0.068266 38.297454 64.170423 75.912245 128.750444 113.527035 193.330466-18.090598 0.887463-39.594516-2.798923-53.247798 12.083154-17.4762 12.902351-22.118316 35.225466-21.299119 55.773655 0.75093 45.465427-0.887463 90.862588 0.887464 136.259748 0.819197 23.961509 19.319393 42.871304 40.550246 51.472872 33.996671 17.544467 73.454654 6.963174 109.908915 9.284231 36.317729-2.389324 75.639179 8.328502 109.362785-9.284231 20.411656-8.7381 40.891578-26.965231 40.004114-50.995007 0.273066-50.380609 0.204799-100.829484 0.068267-151.210092 1.843193-28.603625-24.917239-53.793929-52.769933-54.408326-36.385995-1.501861-72.840257-0.068266-109.294518-0.409599-37.751323-63.692558-73.932519-128.409112-113.185703-191.14594 20.13859-8.191969 41.437709-23.347111 42.666504-47.103821 1.501861-36.249462 0.068266-72.567191 0.546131-108.88492-0.546131-24.644173 2.730656-49.902744-4.846914-73.795986z" fill="#E06D0C"></path><path d="M171.009296 839.540276c-1.70666-3.003722-5.256513-9.011166-7.03144-12.014887 74.819982 6.007444 150.322629 2.389324 225.34741 1.979726-12.629285 6.826641-26.555632 10.717826-41.028111 10.035161-59.050442-0.409598-118.169151-1.092263-177.287859 0z" fill="#DE5600"></path><path d="M634.128603 829.505115c73.045056 1.638394 146.226644 1.570127 219.2717 0-33.723605 17.612733-73.045056 6.894907-109.362785 9.284231-36.454261-2.321058-75.912245 8.260235-109.908915-9.284231z" fill="#DE5500"></path></svg>
