<svg class="icon" viewBox="0 0 1024 1024" version="1.1" xmlns="http://www.w3.org/2000/svg" width="512" height="512"><path d="M193.72973 0h484.324324l290.594595 290.594595v595.027027a138.378378 138.378378 0 0 1-138.378379 138.378378H193.72973A138.378378 138.378378 0 0 1 55.351351 885.621622V138.378378A138.378378 138.378378 0 0 1 193.72973 0z" fill="#17C685"></path><path d="M678.054054 0v235.243243a44.004324 44.004324 0 0 0 41.513514 41.513514c33.210811 2.905946 249.081081 13.837838 249.081081 13.837838z" fill="#008A44"></path><path d="M671.827027 681.236757a49.954595 49.954595 0 0 0-33.902703 13.837838L565.137297 650.378378a71.541622 71.541622 0 0 0 3.736217-22.97081 62.823784 62.823784 0 0 0-50.646487-61.993514V484.324324A48.017297 48.017297 0 0 0 553.513514 438.244324 47.463784 47.463784 0 1 0 493.872432 484.324324v80.25946a63.515676 63.515676 0 0 0-50.092973 62.408648 73.340541 73.340541 0 0 0 4.151352 23.662703l-73.063784 44.834595a46.771892 46.771892 0 0 0-33.902703-13.837838 47.325405 47.325405 0 1 0 47.325406 47.325405 60.60973 60.60973 0 0 0-1.937298-15.083243l72.925406-44.834595a63.930811 63.930811 0 0 0 47.463784 20.618379 65.037838 65.037838 0 0 0 47.878919-20.895135l72.648648 44.696216a48.017297 48.017297 0 0 0-2.352432 15.498378 47.325405 47.325405 0 0 0 94.650811 0 48.017297 48.017297 0 0 0-47.740541-47.602162z" fill="#FFFFFF"></path></svg>
