<svg class="icon" viewBox="0 0 1034 1024" version="1.1" xmlns="http://www.w3.org/2000/svg" width="512" height="512"><path d="M2.56 0m245.76 0l532.48 0q245.76 0 245.76 245.76l0 532.48q0 245.76-245.76 245.76l-532.48 0q-245.76 0-245.76-245.76l0-532.48q0-245.76 245.76-245.76Z" fill="#04C160"></path><path d="M715.79648 236.36992h-51.68128a16.54784 16.54784 0 0 0-12.1856 5.39648c-3.2768 3.5328-5.07904 8.17152-5.04832 12.99456 0 4.7104 1.67936 9.3696 5.04832 12.98432a16.54784 16.54784 0 0 0 12.1856 5.376h51.68128v55.1424c0 4.72064 1.65888 9.35936 5.04832 12.98432a16.5376 16.5376 0 0 0 24.35072 0c3.2768-3.52256 5.07904-8.17152 5.04832-12.98432v-55.1424c0-20.2752-15.45216-36.75136-34.44736-36.75136zM732.99968 512a17.07008 17.07008 0 0 0-12.1856 5.02784 17.07008 17.07008 0 0 0-5.0176 12.1856v51.68128h-51.68128a17.09056 17.09056 0 0 0-12.1856 5.04832c-0.9216 0.9216-1.41312 2.08896-2.08896 3.20512-19.43552-18.71872-41.27744-34.07872-65.45408-44.30848 49.09056-29.32736 80.16896-85.73952 70.63552-149.12512-8.99072-59.46368-55.12192-109.18912-114.00192-121.47712a155.17696 155.17696 0 0 0-31.91808-3.33824 147.58912 147.58912 0 0 0-147.65056 147.65056c0 53.89312 29.22496 100.58752 72.33536 126.3616-24.1152 10.21952-45.99808 25.57952-65.45408 44.29824-0.65536-1.10592-1.15712-2.28352-2.08896-3.20512a17.09056 17.09056 0 0 0-12.1856-5.03808h-51.6608v-51.68128a17.07008 17.07008 0 0 0-5.04832-12.1856 17.1008 17.1008 0 0 0-12.1856-5.04832 17.09056 17.09056 0 0 0-12.1856 5.04832 17.09056 17.09056 0 0 0-5.0176 12.1856v51.67104a34.47808 34.47808 0 0 0 34.43712 34.44736h42.43456c-28.78464 37.2736-48.76288 83.968-55.05024 136.13056-2.33472 19.2 12.98432 36.12672 32.28672 36.12672H696.1152c19.32288 0 34.58048-16.97792 32.28672-36.12672-6.26688-52.224-26.2656-98.9184-55.05024-136.192H715.776a34.48832 34.48832 0 0 0 34.46784-34.44736V529.2032a17.09056 17.09056 0 0 0-5.04832-12.1856 17.09056 17.09056 0 0 0-12.1856-5.0176V512z m-447.7952-165.376a16.52736 16.52736 0 0 0 12.16512-5.376c3.2768-3.52256 5.08928-8.17152 5.04832-12.98432v-55.1424h51.68128a16.5376 16.5376 0 0 0 12.1856-5.376c3.2768-3.5328 5.0688-8.17152 5.02784-12.98432a18.86208 18.86208 0 0 0-5.04832-12.99456 16.54784 16.54784 0 0 0-12.1856-5.39648h-51.68128c-19.01568 0-34.44736 16.47616-34.44736 36.77184v55.12192c0 4.72064 1.65888 9.35936 5.02784 12.98432a16.51712 16.51712 0 0 0 12.1856 5.376h0.0512z" fill="#FFFFFF"></path></svg>
