<svg viewBox="0 0 1033 1024" version="1.1" xmlns="http://www.w3.org/2000/svg" width="512" height="512">
    <path d="M676.481691 202.944507H811.778029L608.833522 0v135.296338c0 54.118535 13.529634 67.648169 67.648169 67.648169z" fill="#F5B216" p-id="8803"></path>
    <path d="M445.017575 842.659956s94.492681-141.739021 236.231701-141.739021c50.03817 0 94.149071 17.695902 130.356949 40.588901V270.592676H586.284132c-16.321463 0-45.098779-13.529634-45.098779-45.14173V0H90.197559A90.455266 90.455266 0 0 0 0 90.197559v766.67925a90.455266 90.455266 0 0 0 90.197559 90.197559h466.02072a391.715113 391.715113 0 0 1-111.200704-104.414412z" fill="#F5B216"></path>
    <path d="M681.249276 740.393104c-102.266851 0-170.430435 102.266851-170.430435 102.266852S578.982425 944.926807 681.249276 944.926807s170.430435-102.266851 170.430435-102.266851-68.077681-102.266851-170.430435-102.266852z m0 169.700265a67.819974 67.819974 0 1 1 67.819974-67.819974 67.819974 67.819974 0 0 1-67.819974 67.819974z m-34.103267-67.605218a33.931463 33.931463 0 1 0 9.921731-24.009731 34.360975 34.360975 0 0 0-9.921731 24.009731z m0 0" fill="#F5B216"></path>
</svg>
